<svg id="Livello_1" data-name="Livello 1" xmlns="http://www.w3.org/2000/svg" viewBox="0 0 768.3 261.3"><defs><style>.cls-1{fill:#fff;}</style></defs><title>Tavola disegno 1</title><path class="cls-1" d="M379.5,146.7a8.36,8.36,0,0,0-8.3,8.4v55.3a8.17,8.17,0,0,0,8.1,8.3h.2a8.36,8.36,0,0,0,8.4-8.3V155.1a8.24,8.24,0,0,0-8-8.4Z"/><path class="cls-1" d="M461,146.7a8.16,8.16,0,0,0-5.9,2.5,8.52,8.52,0,0,0-2.1,3.7,31.58,31.58,0,0,0-19.8-6.9,32.74,32.74,0,0,0-15.9,4.1,34.09,34.09,0,0,0-12.8,12.2c-3.3,5.4-5,12-5,19.7s1.7,14.3,5,19.7a32.63,32.63,0,0,0,12.8,12.2,33,33,0,0,0,15.9,4.1,31.54,31.54,0,0,0,19.6-6.6v3c0,12.6-5.5,18.5-17.2,18.5a44.29,44.29,0,0,1-20.2-4.6l-.2-.1a8.76,8.76,0,0,0-3.2-.7,7.68,7.68,0,0,0-7.6,7.8A7.37,7.37,0,0,0,408,242a52.1,52.1,0,0,0,13.1,5,63.75,63.75,0,0,0,15.7,2c10.4,0,18.6-3.2,24.3-9.6s8.5-15.3,8.5-26.7V155.1a8.69,8.69,0,0,0-8.6-8.4Zm-25.4,55.8c-5.8,0-10.4-1.7-14.1-5.2s-5.4-8.4-5.4-15.2,1.8-11.7,5.4-15.2,8.2-5.2,14.1-5.2a18.56,18.56,0,0,1,9.5,2.3,35.6,35.6,0,0,1,7.6,5.8v24.5a36.18,36.18,0,0,1-7.7,5.8h0a19.62,19.62,0,0,1-9.4,2.4Z"/><path class="cls-1" d="M493.1,146.7a8.36,8.36,0,0,0-8.3,8.4v55.3a8.17,8.17,0,0,0,8.1,8.3h.2a8.36,8.36,0,0,0,8.4-8.3V155.1a8.24,8.24,0,0,0-8-8.4Z"/><path class="cls-1" d="M380.1,125.2h-.8a9.13,9.13,0,0,0-9.1,9.1v.5a9.13,9.13,0,0,0,9.1,9.1h.8a9.13,9.13,0,0,0,9.1-9.1v-.5A9.13,9.13,0,0,0,380.1,125.2Z"/><path class="cls-1" d="M493.6,125.2h-.8a9.13,9.13,0,0,0-9.1,9.1v.5a9.13,9.13,0,0,0,9.1,9.1h.8a9.13,9.13,0,0,0,9.1-9.1v-.5A9.13,9.13,0,0,0,493.6,125.2Z"/><path class="cls-1" d="M338.5,134.9c-7.2-4.6-16.1-6.9-26.3-6.9H286.3a8.16,8.16,0,0,0-5.9,2.5,8.67,8.67,0,0,0-2.4,5.9v78.3a8.3,8.3,0,0,0,8.1,8.3h26.1c10.2,0,19.1-2.3,26.3-6.9a44.38,44.38,0,0,0,16.3-17.8,50.83,50.83,0,0,0,0-45.6A44.38,44.38,0,0,0,338.5,134.9Zm5.1,40.6a32.6,32.6,0,0,1-4.1,16.5,28.08,28.08,0,0,1-11.4,11,36.44,36.44,0,0,1-17.4,4H294.6V144h16.1a36.44,36.44,0,0,1,17.4,4,28.08,28.08,0,0,1,11.4,11A31.15,31.15,0,0,1,343.6,175.5Z"/><path class="cls-1" d="M551.1,207.9a13.55,13.55,0,0,0-2,.2l-1.1.3h-.1a16.19,16.19,0,0,1-4.4.7,10.12,10.12,0,0,1-4.8-1c-.7-.4-1.1-2-1.1-4.2V167.5h12.1a7.41,7.41,0,0,0,5.4-2.3,7.54,7.54,0,0,0,0-10.6,7.73,7.73,0,0,0-5.4-2.2H537.6v-7.8a5.18,5.18,0,0,0-1.4-3.5,4.84,4.84,0,0,0-3.6-1.6,5.42,5.42,0,0,0-3.9,1.9l-17.4,17.1a5.11,5.11,0,0,0-2,4.1,5.06,5.06,0,0,0,4.9,5H521v37.5c0,8.9,3.7,19.5,21.3,19.5a29.73,29.73,0,0,0,11.8-2.5h.1a7.38,7.38,0,0,0,4.3-6.7,7,7,0,0,0-2.2-5.1A6.7,6.7,0,0,0,551.1,207.9Z"/><path class="cls-1" d="M610.8,150.1a32.26,32.26,0,0,0-16.3-4,60.34,60.34,0,0,0-23.3,4.8,7.45,7.45,0,0,0-4.9,7.2,6.73,6.73,0,0,0,2.2,5.2,7,7,0,0,0,5.1,2.2,9.08,9.08,0,0,0,2.3-.3h.2a58.36,58.36,0,0,1,8.2-2.2,37.35,37.35,0,0,1,8.2-.7c5.3,0,9.1,1,11.4,3.1,2,1.8,3.1,4.8,3.3,8.9H594.1c-10.2,0-18.2,2.1-23.6,6.2a20.51,20.51,0,0,0-8.5,17.2,21.59,21.59,0,0,0,3.2,11.6,20.93,20.93,0,0,0,8.7,7.7,27.3,27.3,0,0,0,11.6,2.6c8.5,0,15.8-2.3,22-7a8.38,8.38,0,0,0,16.5-2V174a30.55,30.55,0,0,0-3.2-13.6A26.07,26.07,0,0,0,610.8,150.1Zm-11.2,51.5a21,21,0,0,1-9.8,2.5c-4.2,0-7.2-.8-8.8-2.2a7,7,0,0,1-2.3-5.6c0-1.9,0-7.7,17-7.7h11.6V196a28.16,28.16,0,0,1-7.7,5.6Z"/><path class="cls-1" d="M647,118.4a8.16,8.16,0,0,0-5.9,2.5,8.67,8.67,0,0,0-2.4,5.9v83.7a8.3,8.3,0,0,0,8.1,8.3h.2a8.36,8.36,0,0,0,8.4-8.3V126.8a8.24,8.24,0,0,0-8-8.4.3.3,0,0,0-.4,0Z"/><path class="cls-1" d="M731,187a8.14,8.14,0,0,0,2.3-5.9,39.79,39.79,0,0,0-3.9-17.3A31,31,0,0,0,718,150.9a32.36,32.36,0,0,0-17.9-4.8,32.81,32.81,0,0,0-18.6,5.2,31.59,31.59,0,0,0-11.2,13.6,45.79,45.79,0,0,0-3.6,17.9c0,11.5,3.2,20.5,9.5,27h0c6.3,6.4,15.2,9.7,26.4,9.7a42.31,42.31,0,0,0,23.8-6c3.8-2.2,4.6-5,4.6-6.9a7.2,7.2,0,0,0-2.4-5.5,7.85,7.85,0,0,0-5.3-2.1,7.73,7.73,0,0,0-3.4.8,41.57,41.57,0,0,1-7.4,2.8,38,38,0,0,1-8.9,1c-6.1,0-10.9-1.5-14.2-4.4a17.78,17.78,0,0,1-5.4-9.7h40.8A8.69,8.69,0,0,0,731,187Zm-47.1-12.1a17.52,17.52,0,0,1,2.5-6.7,15.16,15.16,0,0,1,6.1-5.4,17.6,17.6,0,0,1,15.2,0,16.13,16.13,0,0,1,6.2,5.4,17.69,17.69,0,0,1,2.6,6.7Z"/><path class="cls-1" d="M305.9,109.2a66.46,66.46,0,0,0,14.2-6.2,7.55,7.55,0,0,0,4.1-7.1,7.42,7.42,0,0,0-2.1-5.2,7.61,7.61,0,0,0-5.5-2.1,8.53,8.53,0,0,0-3.5.8,51.23,51.23,0,0,1-10.6,4.3,42.84,42.84,0,0,1-11.8,1.4c-6.9,0-12.8-1.4-17.6-4.2a27.85,27.85,0,0,1-10.8-11.5,40.7,40.7,0,0,1,0-33.8,26.42,26.42,0,0,1,10.8-11.4c4.8-2.8,10.7-4.2,17.6-4.2a42.39,42.39,0,0,1,11.8,1.4,58.36,58.36,0,0,1,10.7,4.3,8.08,8.08,0,0,0,3.4.8,7.39,7.39,0,0,0,5.5-2.2,7.17,7.17,0,0,0,2.1-5.2,7.73,7.73,0,0,0-4.1-7.1,72.74,72.74,0,0,0-14.3-6.2,60.59,60.59,0,0,0-16.4-2.2A50.57,50.57,0,0,0,265,19.5a42.65,42.65,0,0,0-17.1,17.1c-4.1,7.3-6.2,16-6.2,25.8s2.1,18.5,6.2,25.8A43.92,43.92,0,0,0,265,105.3a50.57,50.57,0,0,0,24.4,5.9A54.12,54.12,0,0,0,305.9,109.2Z"/><path class="cls-1" d="M342.9,38.6a8.36,8.36,0,0,0-8.3,8.4v55.3a8.24,8.24,0,0,0,8.1,8.3h.2a8.36,8.36,0,0,0,8.4-8.3V47a8.24,8.24,0,0,0-8-8.4Z"/><path class="cls-1" d="M342.6,30.8h.8a9.13,9.13,0,0,0,9.1-9.1v-.5a9.13,9.13,0,0,0-9.1-9.1h-.8a9.13,9.13,0,0,0-9.1,9.1v.5A9.13,9.13,0,0,0,342.6,30.8Z"/><path class="cls-1" d="M459.9,42.1A22.42,22.42,0,0,0,446.4,38c-9.9,0-17.7,3.7-23.4,10.9a24.29,24.29,0,0,0-6.2-6.6,23,23,0,0,0-13.9-4.4c-5.9,0-10.8,1.3-14.6,3.8a31.67,31.67,0,0,0-4.9,4,8.47,8.47,0,0,0-8.3-7.1,8.36,8.36,0,0,0-8.3,8.4v55.3a8.2,8.2,0,0,0,8.2,8.3h.1a8.36,8.36,0,0,0,8.4-8.3v-38a32.87,32.87,0,0,1,6.7-7.7,15,15,0,0,1,9.4-2.9c4,0,6.7,1,8.2,2.9,1.6,2.2,2.5,5.8,2.5,10.8v34.8a8.24,8.24,0,0,0,8.1,8.3h.2a8.07,8.07,0,0,0,5.9-2.4,8.16,8.16,0,0,0,2.5-5.9v-38a32.87,32.87,0,0,1,6.7-7.7,14.41,14.41,0,0,1,9.4-2.9c4,0,6.7,1,8.2,2.9,1.6,2.2,2.5,5.8,2.5,10.8v34.8a8.24,8.24,0,0,0,8.1,8.3h.2A8.07,8.07,0,0,0,468,108a8.16,8.16,0,0,0,2.5-5.9V65.2A33.17,33.17,0,0,0,468,52.4,24.88,24.88,0,0,0,459.9,42.1Z"/><path class="cls-1" d="M493.4,38.6a8.16,8.16,0,0,0-5.9,2.5,8.67,8.67,0,0,0-2.4,5.9v55.3a8.24,8.24,0,0,0,8.1,8.3h.2a8.07,8.07,0,0,0,5.9-2.4,8.16,8.16,0,0,0,2.5-5.9V47a8.24,8.24,0,0,0-8-8.4Z"/><path class="cls-1" d="M493.9,12.2h-.8a9.13,9.13,0,0,0-9.1,9.1v.5a9.13,9.13,0,0,0,9.1,9.1h.8a9.2,9.2,0,0,0,9.1-9.1v-.5a9.07,9.07,0,0,0-9.1-9.1Z"/><path class="cls-1" d="M556.4,96.9a7.57,7.57,0,0,0-5-2.1,13.55,13.55,0,0,0-2,.2l-1.2.3h-.1a16.19,16.19,0,0,1-4.4.7,10.12,10.12,0,0,1-4.8-1c-.7-.4-1.1-2-1.1-4.2V54.3h12.1a7.41,7.41,0,0,0,5.4-2.3,7.54,7.54,0,0,0,0-10.6,7.73,7.73,0,0,0-5.4-2.2H537.8V31.4a5.18,5.18,0,0,0-1.4-3.5,4.84,4.84,0,0,0-3.6-1.6,5.42,5.42,0,0,0-3.9,1.9L511.4,45.3a5.11,5.11,0,0,0-2,4.1,5.06,5.06,0,0,0,4.9,5h6.8V91.9c0,8.9,3.7,19.5,21.3,19.5a26.74,26.74,0,0,0,11.8-2.6l.1-.1a7.38,7.38,0,0,0,4.3-6.7A6.34,6.34,0,0,0,556.4,96.9Z"/><path class="cls-1" d="M625.8,78.8a8.14,8.14,0,0,0,2.3-5.9,39.79,39.79,0,0,0-3.9-17.3,31.12,31.12,0,0,0-11.5-12.9,32.36,32.36,0,0,0-17.9-4.8,32.81,32.81,0,0,0-18.6,5.2A31.59,31.59,0,0,0,565,56.7a45.79,45.79,0,0,0-3.6,17.9q0,17.25,9.6,27h0c6.3,6.4,15.2,9.7,26.3,9.7a42.31,42.31,0,0,0,23.8-6c3.8-2.2,4.6-5,4.6-6.9a7.2,7.2,0,0,0-2.4-5.5,7.78,7.78,0,0,0-8.7-1.3,41.57,41.57,0,0,1-7.4,2.8,38,38,0,0,1-8.9,1c-6.1,0-10.9-1.5-14.2-4.4a17.78,17.78,0,0,1-5.4-9.7h40.8A7.69,7.69,0,0,0,625.8,78.8Zm-47-12.1a17.52,17.52,0,0,1,2.5-6.7,15.16,15.16,0,0,1,6.1-5.4,17.6,17.6,0,0,1,15.2,0,16.13,16.13,0,0,1,6.2,5.4,17.69,17.69,0,0,1,2.6,6.7Z"/><path class="cls-1" d="M672.9,54.3h.6a8.29,8.29,0,0,0,6-2.2,7.94,7.94,0,0,0,2.5-5.8,8.58,8.58,0,0,0-2.3-5.9,7.7,7.7,0,0,0-5.9-2.4h-.6c-6.5,0-12.4,2.7-17.8,8a8.43,8.43,0,0,0-8.4-7.3,8.36,8.36,0,0,0-8.3,8.4v55.3a8.2,8.2,0,0,0,8.2,8.3h.1a8.36,8.36,0,0,0,8.4-8.3V63.9a23.23,23.23,0,0,1,7.4-6.9A19.85,19.85,0,0,1,672.9,54.3Z"/><path class="cls-1" d="M748.7,55.6a31.79,31.79,0,0,0-12.6-13.1,40.1,40.1,0,0,0-37.2,0,31,31,0,0,0-12.5,13.1,43.67,43.67,0,0,0,0,38A31.21,31.21,0,0,0,699,106.7a40.1,40.1,0,0,0,37.2,0,31.82,31.82,0,0,0,12.6-13.1,43.33,43.33,0,0,0-.1-38ZM726.6,93.4a20.26,20.26,0,0,1-9,2.2,19.12,19.12,0,0,1-9.1-2.2,16.74,16.74,0,0,1-6.9-6.8,24.06,24.06,0,0,1-2.8-12.1c0-4.9.9-8.9,2.8-12a16.5,16.5,0,0,1,6.9-6.7,20.69,20.69,0,0,1,9.2-2.1,20.16,20.16,0,0,1,9,2.1,16.74,16.74,0,0,1,7,6.7c1.9,3.1,2.8,7.1,2.8,12s-.9,9-2.8,12.1a16.62,16.62,0,0,1-7.1,6.8Z"/><path class="cls-1" d="M212.6,93.2a66.36,66.36,0,0,0-24.1-26.3c-10.6-6.8-23.7-10.2-38.8-10.2H111.2c-7,0-13,1.6-17.9,4.7A30.13,30.13,0,0,0,82.2,73.5,34.68,34.68,0,0,0,78.5,89a14.77,14.77,0,0,0,.1,2.1c-6.8,0-12.8,1.6-17.6,4.7a30.13,30.13,0,0,0-11.1,12.1,34.68,34.68,0,0,0-3.7,15.5,13.4,13.4,0,0,0,.1,2,32.19,32.19,0,0,0-16.5,4.7,30.13,30.13,0,0,0-11.1,12.1,34.52,34.52,0,0,0,0,31,29.86,29.86,0,0,0,11.1,12c4.9,3.1,10.9,4.7,17.9,4.7h52c.2.4,48.8,44.6,48.8,44.6a4.14,4.14,0,0,0,5.9-.2,4.36,4.36,0,0,0,1.1-2.9V206.9h0V115.4L127.2,94.6,177.9,105v87a57.42,57.42,0,0,0,10.5-5.3,66.36,66.36,0,0,0,24.1-26.3,74,74,0,0,0,.1-67.2Z"/></svg>